<?xml version="1.0" encoding="UTF-8" standalone="no"?>
<svg
   xmlns:dc="http://purl.org/dc/elements/1.1/"
   xmlns:cc="http://creativecommons.org/ns#"
   xmlns:rdf="http://www.w3.org/1999/02/22-rdf-syntax-ns#"
   xmlns:svg="http://www.w3.org/2000/svg"
   xmlns="http://www.w3.org/2000/svg"
   xmlns:sodipodi="http://sodipodi.sourceforge.net/DTD/sodipodi-0.dtd"
   xmlns:inkscape="http://www.inkscape.org/namespaces/inkscape"
   version="1.0"
   width="854px"
   height="854px"
   viewBox="0 0 8540 8540"
   preserveAspectRatio="xMidYMid meet"
   id="svg80"
   sodipodi:docname="logo.svg"
   inkscape:version="1.0.2 (e86c870879, 2021-01-15)">
  <metadata
     id="metadata86">
    <rdf:RDF>
      <cc:Work
         rdf:about="">
        <dc:format>image/svg+xml</dc:format>
        <dc:type
           rdf:resource="http://purl.org/dc/dcmitype/StillImage" />
      </cc:Work>
    </rdf:RDF>
  </metadata>
  <defs
     id="defs84" />
  <sodipodi:namedview
     pagecolor="#ffffff"
     bordercolor="#666666"
     borderopacity="1"
     objecttolerance="10"
     gridtolerance="10"
     guidetolerance="10"
     inkscape:pageopacity="0"
     inkscape:pageshadow="2"
     inkscape:window-width="918"
     inkscape:window-height="480"
     id="namedview82"
     showgrid="false"
     inkscape:zoom="0.20608899"
     inkscape:cx="522.72105"
     inkscape:cy="440.29158"
     inkscape:window-x="1313"
     inkscape:window-y="480"
     inkscape:window-maximized="0"
     inkscape:current-layer="svg80" />
  <rect
     style="fill:#000000;fill-rule:evenodd;stroke-width:10"
     id="rect88"
     width="13103.436"
     height="11450.703"
     x="-1957.6244"
     y="-1014.8666" />
  <g
     id="layer101"
     fill="#1a4d75"
     stroke="none">
    <path
       d="M2957 5120 c-147 -18 -189 -65 -208 -231 -13 -107 -6 -365 11 -422 17 -56 63 -103 123 -124 41 -14 82 -18 202 -18 251 1 291 24 309 183 l7 52 -51 0 -50 0 0 -40 c0 -23 -7 -54 -15 -70 -19 -37 -53 -44 -215 -45 -222 0 -231 10 -238 270 -5 184 7 296 34 326 28 31 91 43 219 42 135 0 187 -12 203 -47 15 -33 26 -139 18 -170 l-6 -26 -126 0 -125 0 3 -37 3 -38 170 0 170 0 -2 116 c-2 181 -25 235 -111 263 -58 19 -234 27 -325 16z"
       id="path2" />
    <path
       d="M1490 4725 l0 -395 50 0 50 0 0 350 0 350 200 0 200 0 0 45 0 45 -250 0 -250 0 0 -395z"
       id="path4" />
    <path
       d="M2300 4725 l0 -395 45 0 45 0 0 395 0 395 -45 0 -45 0 0 -395z"
       id="path6" />
    <path
       d="M3740 4725 l0 -395 45 0 45 0 0 175 0 175 228 -2 227 -3 3 -172 2 -173 45 0 45 0 0 395 0 395 -45 0 -45 0 0 -180 0 -180 -230 0 -230 0 0 180 0 180 -45 0 -45 0 0 -395z"
       id="path8" />
    <path
       d="M4940 4770 l0 -350 -125 0 -125 0 0 -45 0 -45 300 0 300 0 0 45 0 45 -125 0 -125 0 0 350 0 350 -50 0 -50 0 0 -350z"
       id="path10" />
    <path
       d="M3841 4134 c-105 -28 -134 -70 -153 -223 -15 -122 -6 -407 15 -446 38 -74 98 -102 243 -115 117 -10 236 0 284 25 40 21 70 82 77 160 l6 65 -46 0 c-51 0 -51 1 -61 -89 -2 -24 -11 -50 -19 -58 -34 -34 -310 -33 -361 1 -41 27 -49 79 -43 306 5 225 13 262 58 286 40 20 138 28 244 19 115 -9 131 -23 141 -124 l7 -72 41 3 41 3 -2 77 c-2 88 -27 148 -70 167 -68 31 -309 40 -402 15z"
       id="path12" />
    <path
       d="M1490 3744 l0 -396 233 4 c216 3 235 5 273 25 63 33 86 88 87 206 1 214 -43 247 -330 247 l-163 0 0 155 0 155 -50 0 -50 0 0 -396z m433 -5 c58 -16 71 -45 70 -152 -2 -148 -14 -155 -265 -156 l-138 -1 0 160 0 160 148 0 c81 0 164 -5 185 -11z"
       id="path14" />
    <path
       d="M2531 4113 c6 -15 68 -185 139 -378 71 -192 131 -358 135 -367 6 -15 19 -18 69 -18 l62 0 144 383 c78 210 145 388 147 395 4 8 -9 12 -44 12 l-49 0 -29 -80 -29 -80 -200 2 -200 3 -27 75 -27 75 -51 3 -51 3 11 -28z m509 -219 c0 -11 -163 -455 -166 -452 -1 2 -37 100 -79 218 -43 118 -80 221 -82 228 -4 9 32 12 161 12 91 0 166 -3 166 -6z"
       id="path16" />
    <path
       d="M4790 3745 l0 -395 250 0 250 0 0 40 0 40 -205 0 -205 0 0 130 0 130 198 2 197 3 3 38 3 37 -200 0 -201 0 0 145 0 145 205 0 205 0 0 40 0 40 -250 0 -250 0 0 -395z"
       id="path18" />
    <path
       d="M5807 3156 c-82 -23 -110 -63 -123 -174 l-7 -62 52 0 51 0 0 50 c0 68 16 98 59 110 49 14 248 12 291 -3 45 -15 63 -65 58 -156 -6 -98 -5 -98 -258 -119 -125 -10 -171 -29 -208 -85 -48 -73 -41 -231 13 -290 40 -42 86 -52 250 -52 216 0 259 24 274 156 l7 59 -48 0 c-46 0 -48 -1 -48 -29 0 -51 -19 -89 -52 -100 -41 -15 -234 -13 -278 2 -44 15 -60 47 -60 119 0 110 15 121 185 133 282 21 310 40 310 225 0 93 -3 110 -24 147 -36 63 -75 75 -251 79 -100 3 -160 0 -193 -10z"
       id="path20" />
    <path
       d="M1492 2768 l3 -393 71 -3 72 -3 44 73 c274 449 382 624 387 630 3 4 6 -151 6 -345 l0 -352 45 0 45 0 3 393 2 392 -77 0 -78 0 -212 -347 -213 -346 0 346 0 347 -50 0 -50 0 2 -392z"
       id="path22" />
    <path
       d="M2550 2765 l0 -395 45 0 45 0 0 395 0 395 -45 0 -45 0 0 -395z"
       id="path24" />
    <path
       d="M3220 3157 c0 -2 -61 -173 -135 -381 -74 -208 -135 -384 -135 -392 0 -10 13 -14 44 -14 l45 0 19 53 c11 28 66 186 123 349 57 164 106 298 109 298 3 0 50 -132 104 -293 55 -160 109 -317 121 -347 21 -55 21 -55 68 -58 26 -2 47 0 47 4 0 5 -62 183 -137 396 l-138 388 -67 0 c-38 0 -68 -1 -68 -3z"
       id="path26" />
    <path
       d="M3902 2768 l3 -393 250 0 250 0 3 37 3 38 -208 2 -208 3 -3 133 -3 132 201 0 200 0 0 40 0 40 -200 0 -200 0 0 140 0 140 208 2 207 3 3 38 3 37 -256 0 -255 0 2 -392z"
       id="path28" />
    <path
       d="M4752 2768 l3 -393 231 0 c226 1 232 1 279 25 73 38 90 78 90 212 0 119 -12 148 -74 180 l-32 16 27 14 c59 28 69 57 72 204 l4 134 -46 0 -46 0 0 -92 c-1 -117 -12 -167 -45 -195 -25 -22 -34 -23 -196 -23 l-169 0 0 155 0 155 -50 0 -50 0 2 -392z m465 -21 c41 -22 56 -68 51 -163 -6 -120 -30 -132 -285 -133 l-133 -1 0 161 0 162 168 -5 c128 -4 174 -9 199 -21z"
       id="path30" />
    <path
       d="M6620 2764 l0 -395 43 3 42 3 3 393 2 392 -45 0 -45 0 0 -396z"
       id="path32" />
    <path
       d="M7280 2810 l0 -350 -131 0 -130 0 3 -42 3 -43 298 -3 297 -2 0 45 0 45 -125 0 -125 0 0 350 0 350 -45 0 -45 0 0 -350z"
       id="path34" />
    <path
       d="M8140 2995 l0 -164 -140 -221 c-77 -122 -140 -225 -140 -230 0 -6 22 -10 48 -10 l48 0 118 185 118 185 107 -169 c59 -94 113 -177 121 -185 12 -15 110 -24 110 -11 0 3 -65 106 -145 229 l-145 223 0 166 0 167 -50 0 -50 0 0 -165z"
       id="path36" />
    <path
       d="M7306 2188 c-208 -16 -241 -80 -234 -446 3 -164 6 -193 24 -233 38 -83 97 -108 269 -116 123 -6 233 6 282 29 40 19 73 90 73 155 l0 53 -45 0 c-45 0 -45 0 -45 -35 0 -20 -6 -51 -14 -69 -13 -31 -20 -35 -72 -46 -76 -16 -278 -9 -319 11 -55 27 -60 50 -60 306 0 219 1 233 21 260 11 15 38 34 59 41 48 16 274 17 322 1 46 -15 63 -56 63 -154 l0 -75 -125 0 -125 0 0 -40 0 -40 170 0 170 0 0 103 c0 187 -30 263 -112 282 -59 13 -211 20 -302 13z"
       id="path38" />
    <path
       d="M1430 2179 c0 -10 148 -421 262 -727 l20 -53 65 3 65 3 144 384 c79 211 144 388 144 393 0 5 -21 8 -47 6 l-48 -3 -29 -82 -30 -83 -197 0 -196 0 -30 83 -30 82 -47 3 c-31 2 -46 -1 -46 -9z m496 -291 c-13 -35 -49 -135 -81 -223 -32 -88 -61 -163 -65 -168 -3 -4 -41 88 -83 205 -41 117 -79 221 -82 231 -7 16 5 17 163 17 l171 0 -23 -62z"
       id="path40" />
    <path
       d="M2447 2183 c-4 -3 -7 -181 -7 -395 l0 -388 83 0 82 0 135 330 c74 181 136 327 139 325 2 -3 64 -150 136 -327 l132 -323 82 -3 81 -3 0 396 0 395 -45 0 -45 0 -2 -355 -3 -356 -145 353 -145 353 -46 3 -45 3 -145 -346 -144 -346 -3 345 -2 346 -43 0 c-24 0 -47 -3 -50 -7z"
       id="path42" />
    <path
       d="M3690 1795 l0 -397 243 4 c183 3 249 7 270 18 45 22 67 78 68 169 1 89 -14 128 -61 162 l-29 22 32 16 c68 34 102 140 79 248 -14 67 -36 99 -86 126 -38 20 -59 22 -278 25 l-238 4 0 -397z m478 288 c17 -13 30 -35 36 -61 10 -48 0 -143 -18 -168 -17 -23 -91 -32 -268 -33 l-138 -1 0 146 0 147 180 -5 c161 -4 184 -7 208 -25z m-40 -354 c38 -13 54 -50 54 -127 0 -69 -13 -99 -48 -112 -14 -6 -99 -10 -190 -10 l-164 0 0 130 0 130 159 0 c87 0 172 -5 189 -11z"
       id="path44" />
    <path
       d="M4650 1796 l0 -396 223 0 c130 0 238 5 262 11 52 15 100 65 115 120 17 60 8 201 -15 235 -9 14 -32 35 -52 46 l-35 21 30 13 c57 23 67 53 70 206 l4 138 -45 0 -44 0 -5 -125 c-6 -136 -17 -168 -64 -185 -14 -6 -97 -10 -184 -10 l-159 0 -3 158 -3 157 -47 3 -48 3 0 -395z m463 -24 c37 -15 57 -66 56 -139 0 -75 -18 -124 -49 -140 -17 -9 -79 -13 -197 -13 l-173 0 0 156 0 156 168 -4 c92 -3 180 -10 195 -16z"
       id="path46" />
    <path
       d="M5620 1795 l0 -395 45 0 45 0 0 395 0 395 -45 0 -45 0 0 -395z"
       id="path48" />
    <path
       d="M6100 1795 l0 -397 243 4 c228 3 244 4 284 25 48 26 85 71 104 128 23 65 19 381 -5 469 -22 79 -63 128 -123 147 -23 7 -134 14 -270 16 l-233 5 0 -397z m472 292 c46 -20 63 -47 78 -124 17 -87 9 -356 -12 -405 -30 -67 -48 -73 -260 -76 l-188 -4 0 317 0 318 173 -5 c126 -4 182 -9 209 -21z"
       id="path50" />
    <path
       d="M8037 2183 c-4 -3 -7 -181 -7 -395 l0 -388 255 0 255 0 0 40 0 40 -205 0 -205 0 0 130 0 130 198 2 197 3 0 35 0 35 -197 3 -198 2 0 145 0 145 205 0 205 0 0 40 0 40 -248 0 c-137 0 -252 -3 -255 -7z"
       id="path52" />
  </g>
  <g
     id="layer102"
     fill="#5fabe3"
     stroke="none">
    <path
       d="M625 5624 c-314 -217 -581 -406 -595 -420 l-25 -24 -3 -1860 c-2 -1779 -1 -1861 16 -1907 17 -44 517 -946 566 -1020 27 -41 45 -41 73 0 72 109 565 988 578 1030 13 44 15 324 15 2308 0 2039 -2 2259 -16 2273 -8 9 -21 16 -27 16 -7 0 -269 -178 -582 -396z"
       id="path55" />
  </g>
  <g
     id="layer103"
     fill="#afd4da"
     stroke="none">
    <path
       d="M1095 8104 c-61 -42 -315 -219 -565 -392 -250 -173 -472 -331 -492 -350 -31 -29 -38 -43 -38 -74 0 -41 13 -48 53 -26 12 6 278 189 591 406 376 262 575 405 587 426 25 39 21 80 -6 84 -13 2 -63 -27 -130 -74z"
       id="path58" />
    <path
       d="M1181 7799 c-81 -49 -1119 -774 -1148 -802 -29 -27 -33 -37 -33 -84 0 -44 3 -53 18 -53 29 1 1183 811 1209 849 25 37 30 80 11 99 -16 16 -17 15 -57 -9z"
       id="path60" />
    <path
       d="M1154 7397 c-242 -163 -1105 -767 -1126 -788 -24 -24 -28 -35 -28 -87 0 -76 17 -95 63 -69 34 20 1011 697 1095 759 58 43 91 100 92 155 0 73 -23 80 -96 30z"
       id="path62" />
    <path
       d="M1154 6957 c-87 -58 -1089 -756 -1104 -769 -38 -31 -50 -62 -50 -129 0 -69 14 -97 45 -86 28 11 1150 796 1175 822 32 34 42 151 15 178 -22 23 -26 22 -81 -16z"
       id="path64" />
    <path
       d="M970 6373 c-664 -460 -910 -635 -939 -668 -31 -36 -32 -38 -29 -128 l3 -92 30 0 c23 1 165 94 604 400 372 259 581 411 593 430 13 22 18 50 18 107 0 91 -5 108 -34 108 -11 -1 -122 -71 -246 -157z"
       id="path66" />
    <path
       d="M1245 3725 c0 -1248 1 -1761 2 -1138 2 622 2 1644 0 2270 -1 626 -2 117 -2 -1132z"
       id="path68" />
  </g>
  <g
     id="layer104"
     fill="#fcfdfe"
     stroke="none">
    <path
       d="M300 4725 l0 -395 315 0 315 0 0 65 0 65 -240 0 -240 0 0 105 0 105 210 0 211 0 -3 63 -3 62 -207 3 -208 2 0 160 0 160 -75 0 -75 0 0 -395z"
       id="path71" />
    <path
       d="M488 4140 c-132 -16 -175 -57 -185 -179 l-6 -71 70 0 c76 0 82 5 83 68 0 41 31 59 116 66 97 8 183 -5 201 -30 7 -10 13 -44 13 -79 0 -90 -6 -93 -192 -111 -246 -23 -284 -53 -282 -224 1 -107 17 -159 60 -187 83 -54 376 -58 477 -6 37 18 66 84 67 146 l0 47 -70 0 c-68 0 -70 -1 -76 -27 -3 -16 -8 -36 -10 -45 -8 -27 -68 -41 -166 -36 -107 5 -131 21 -132 90 -1 86 6 95 81 107 38 5 102 13 143 16 215 18 258 61 248 247 -8 151 -49 192 -208 209 -97 10 -137 10 -232 -1z"
       id="path73" />
    <path
       d="M469 3160 c-88 -16 -133 -51 -154 -124 -12 -39 -15 -114 -15 -353 l0 -303 75 0 75 0 0 295 c0 198 4 302 11 319 16 34 56 46 154 46 98 0 138 -12 154 -46 7 -17 11 -121 11 -319 l0 -295 76 0 75 0 -3 323 c-3 273 -6 327 -20 357 -36 78 -94 100 -268 105 -69 2 -146 0 -171 -5z"
       id="path75" />
    <path
       d="M458 2176 c-66 -18 -97 -42 -119 -90 -38 -87 -53 -408 -24 -520 20 -75 45 -109 98 -135 88 -43 348 -47 426 -7 57 30 91 105 91 201 l0 35 -74 0 -73 0 -6 -46 c-7 -68 -28 -83 -122 -90 -99 -8 -158 6 -183 43 -15 23 -17 53 -17 218 0 271 5 280 183 273 122 -4 138 -14 148 -94 l6 -54 75 0 75 0 -7 73 c-8 85 -37 152 -74 171 -67 35 -306 48 -403 22z"
       id="path77" />
  </g>
</svg>
